<svg width="656" height="70" viewBox="0 0 656 70" fill="none" xmlns="http://www.w3.org/2000/svg">
<path d="M656 35L580.788 70V41.0622H72.8889L60.7407 59.249H48.5926L59.7284 41.0622H56.6914L44.5432 59.249H32.3951L43.5309 41.0622H40.4938L28.3457 59.249H16.1975L27.3333 41.0622H24.2963L12.1481 59.249H0L11.1358 41.0622H6.07803C6.075 41.0552 6.07407 40.8522 6.07407 35C6.07407 29.1478 6.075 28.9448 6.07803 28.9378H12.1481L0 10.751H13.1605L24.2963 28.9378H28.3457L16.1975 10.751H29.358L40.4938 28.9378H44.5432L32.3951 10.751H45.5556L56.6914 28.9378H60.7407L48.5926 10.751H61.7531L72.8889 28.9378H580.788V0L656 35Z" fill="#0D0D0D"/>
</svg>
